<svg xmlns="http://www.w3.org/2000/svg" viewBox="0 0 32 32" role="img" aria-label="Arpan Das portfolio">
  <rect width="32" height="32" rx="6" fill="#F5F0E8"/>
  <rect x="2.5" y="2.5" width="27" height="27" rx="5" fill="none" stroke="#2C1F14" stroke-width="1.2"/>
  <path d="M16 16 C16 13.5 18 12 20 13 C22.5 14.5 22.5 18 20 19.5 C17 21.5 12.5 20.5 11 17 C9.5 13 12 8.5 16 8 C21 7.5 25 11 25 16 C25 22 20 26 16 26 C10 26 6 21 6 16 C6 9.5 10.5 5 16 5 C23 5 27 10.5 27 16" fill="none" stroke="#2C1F14" stroke-width="2" stroke-linecap="round"/>
  <circle cx="16" cy="16" r="2.2" fill="#2A9D8F"/>
</svg>